P3
6 6
255
0 0 254 4 8 253 4 0 249 3 10 251 0 0 255 8 0 255
9 0 255 0 1 255 1 0 255 8 0 250 0 7 249 0 3 255
10 3 248 6 1 249 9 1 255 8 3 255 8 0 255 4 7 249
0 0 249 0 0 255 4 10 255 0 10 255 0 0 255 0 3 245
0 0 255 0 0 255 4 3 255 0 4 253 7 0 247 0 7 253
0 8 252 0 0 246 7 0 255 0 0 255 6 0 252 5 9 245
