P3
5 6
255
6 255 0 2 255 9 0 251 0 0 250 0 3 249 7
8 247 0 0 3 8 247 255 255 0 4 9 0 250 0
0 255 0 255 246 255 1 9 0 255 246 252 0 247 7
0 255 9 0 0 0 255 255 255 9 0 0 1 255 4
6 255 8 255 250 246 5 4 6 254 250 247 0 250 1
0 255 6 9 255 10 0 255 0 0 255 10 8 254 9
