P3
4 4
255
0 0 0 255 255 255 0 0 0 255 255 255
77 77 77 0 0 0 77 77 77 0 0 0
0 0 0 149 149 149 0 0 0 149 149 149
29 29 29 0 0 0 29 29 29 0 0 0
